<?xml version="1.0" standalone="no"?>
<!DOCTYPE svg PUBLIC "-//W3C//DTD SVG 20010904//EN"
 "http://www.w3.org/TR/2001/REC-SVG-20010904/DTD/svg10.dtd">
<svg version="1.0" xmlns="http://www.w3.org/2000/svg"
 width="700.000000pt" height="700.000000pt" viewBox="0 0 700.000000 700.000000"
 preserveAspectRatio="xMidYMid meet">

<g transform="translate(0.000000,700.000000) scale(0.100000,-0.100000)"
fill="#000000" stroke="none">
<path d="M4841 4964 c-128 -34 -319 -145 -463 -268 -40 -34 -174 -160 -297
-279 l-224 -217 -56 0 c-31 0 -373 -11 -761 -25 l-705 -25 -144 -53 c-79 -30
-147 -61 -152 -69 -5 -9 -4 -22 4 -32 21 -28 451 -188 965 -357 105 -35 191
-68 189 -73 -2 -6 -192 -193 -422 -416 l-420 -407 -198 35 c-109 18 -204 31
-212 29 -7 -3 -25 -45 -40 -93 -22 -72 -24 -89 -13 -99 7 -7 82 -41 166 -75
83 -35 152 -66 152 -70 0 -5 -9 -30 -20 -56 -26 -60 -17 -71 44 -55 82 20 67
42 136 -211 22 -81 37 -119 49 -122 9 -3 54 2 101 12 l85 17 -2 110 c-1 61 -4
156 -7 212 l-7 102 317 258 c174 142 380 310 458 374 78 64 142 116 143 115 1
-1 32 -143 68 -316 70 -332 161 -724 192 -825 15 -47 23 -61 41 -63 25 -4 34
8 116 171 l57 113 110 720 c60 395 112 731 115 747 4 21 67 78 272 246 147
120 303 256 348 302 284 294 374 576 208 645 -42 18 -124 17 -193 -2z"/>
</g>
</svg>
